<svg xmlns="http://www.w3.org/2000/svg" xmlns:xlink="http://www.w3.org/1999/xlink" width="400" height="51.143" viewBox="0 0 400 51.143">
  <defs>
    <clipPath id="clip-path">
      <rect width="400" height="51.143" fill="#fff"/>
    </clipPath>
  </defs>
  <g clip-path="url(#clip-path)">
    <path id="Path_1" data-name="Path 1" d="M127.694,5.3a25.181,25.181,0,0,0,3.5,1.147,1.782,1.782,0,0,0,1.495-.739,3.6,3.6,0,0,0,.707-1.554h1.376V15.621h-1.224a26.632,26.632,0,0,0-3.615-5.873q-3.445-3.964-7.8-3.964a7.2,7.2,0,0,0-7,4.242q-2.07,4.242-2.069,11.385a26,26,0,0,0,1.215,8.65q2.263,6.354,8.413,6.355a12.641,12.641,0,0,0,7-2.1,26.36,26.36,0,0,0,4.385-3.9l1.459,1.206a27.836,27.836,0,0,1-5.04,4.633,15.279,15.279,0,0,1-8.6,2.555,17.729,17.729,0,0,1-12.135-4.3q-5.421-4.753-5.421-12.8a17.028,17.028,0,0,1,5.193-12.921A16.724,16.724,0,0,1,121.5,4.154a17.956,17.956,0,0,1,6.2,1.147" transform="translate(82.874 3.3)"/>
    <path id="Path_2" data-name="Path 2" d="M122.019,36.4a3.614,3.614,0,0,0,1.967-.727,2.967,2.967,0,0,0,.633-2.23V8.521a3.14,3.14,0,0,0-.526-2.069,3.333,3.333,0,0,0-2.074-.786V4.495h9.427V18.248a12.554,12.554,0,0,1,3.167-2.819,7.137,7.137,0,0,1,3.741-1,6.744,6.744,0,0,1,4.658,1.64q1.841,1.639,1.841,5.591V33.444a2.926,2.926,0,0,0,.563,2.142,4.3,4.3,0,0,0,1.884.815v1.173H135.8V36.4a3.8,3.8,0,0,0,1.8-.716,3.018,3.018,0,0,0,.477-2.058V21.765a7.113,7.113,0,0,0-.336-2.512,2.213,2.213,0,0,0-2.272-1.507,4.068,4.068,0,0,0-2.618,1.173q-1.351,1.171-1.351,1.6V33.627a3.006,3.006,0,0,0,.479,2.058,3.774,3.774,0,0,0,1.794.716v1.173H122.019Z" transform="translate(96.918 3.571)"/>
    <path id="Path_3" data-name="Path 3" d="M135.713,36.695a3.485,3.485,0,0,0,1.742-.635,3.079,3.079,0,0,0,.7-2.322V19.364a3.118,3.118,0,0,0-.493-2.042,3.525,3.525,0,0,0-1.952-.811V15.338h9.328v18.6a2.95,2.95,0,0,0,.481,2.04,3.818,3.818,0,0,0,1.81.712v1.173h-11.62Zm3.2-31.459A3.8,3.8,0,0,1,145.4,7.924a3.662,3.662,0,0,1-1.114,2.686A3.8,3.8,0,0,1,137.8,7.924a3.647,3.647,0,0,1,1.114-2.688" transform="translate(107.795 3.277)"/>
    <path id="Path_4" data-name="Path 4" d="M141.817,36.4a3.927,3.927,0,0,0,1.81-.82,3.047,3.047,0,0,0,.533-2.137V8.521a3,3,0,0,0-.5-2.063,3.988,3.988,0,0,0-1.846-.791V4.495h9.226V33.444a2.971,2.971,0,0,0,.538,2.126,4.391,4.391,0,0,0,1.906.831v1.173h-11.67Z" transform="translate(112.644 3.571)"/>
    <path id="Path_5" data-name="Path 5" d="M150.912,17.792a8.333,8.333,0,0,1,6.635-3.359,6.279,6.279,0,0,1,3.445.958,12.924,12.924,0,0,1,2.343,2.06V8.521q0-1.862-.714-2.311a6.939,6.939,0,0,0-2.953-.544V4.495h10.55V32.68a2.849,2.849,0,0,0,.572,2.047,3.7,3.7,0,0,0,2.246.705v1.173q-4.126.4-5.325.6t-4.222,1.028V35.028a13.109,13.109,0,0,1-2.532,2.115,7.469,7.469,0,0,1-3.92,1.091A8.053,8.053,0,0,1,150.8,35.2q-2.651-3.033-2.65-8.245,0-5.808,2.763-9.163m11.164,16.281q1.26-1.41,1.26-1.986V20.179a3.306,3.306,0,0,0-1.08-1.769,3.706,3.706,0,0,0-2.86-1.172q-2.622,0-3.556,3.608a22.86,22.86,0,0,0-.506,5.478,25.135,25.135,0,0,0,.481,5.691q.891,3.467,3.415,3.468a3.755,3.755,0,0,0,2.848-1.41" transform="translate(117.673 3.571)"/>
    <path id="Path_6" data-name="Path 6" d="M161.642,32a3.581,3.581,0,0,0,1.958-.667,2.725,2.725,0,0,0,.6-1.932l.047-1.432v-13.3a3.117,3.117,0,0,0-.524-2.1,3.494,3.494,0,0,0-2.076-.75V10.646h9.226v3.806a17.828,17.828,0,0,1,3.1-3.224,5.645,5.645,0,0,1,3.556-1.193,4.284,4.284,0,0,1,2.731.965,3.4,3.4,0,0,1,1.213,2.828,3.348,3.348,0,0,1-.854,2.361,2.869,2.869,0,0,1-2.22.929,3.358,3.358,0,0,1-2.7-1.452q-1.138-1.453-1.6-1.453a2.708,2.708,0,0,0-1.979,1.2,5.285,5.285,0,0,0-1,3.461v9.3q0,2.422.707,3.027a5.33,5.33,0,0,0,2.81.795v1.173h-13Z" transform="translate(128.39 7.971)"/>
    <path id="Path_7" data-name="Path 7" d="M174.91,13.153a9.671,9.671,0,0,1,7.235-3.12,8.745,8.745,0,0,1,4.543,1.267,8.506,8.506,0,0,1,3.276,3.513,13.51,13.51,0,0,1,1.195,4.4,15.772,15.772,0,0,1,.169,1.936H178.84a17.671,17.671,0,0,0,.958,5.089q1.429,4.034,5.042,4.035a5.552,5.552,0,0,0,3.251-1.077,14.784,14.784,0,0,0,2.316-2.173l1.123.694a13.059,13.059,0,0,1-5.257,5.189,10.115,10.115,0,0,1-4.446.933,9.961,9.961,0,0,1-6.766-2.844q-3.152-2.842-3.151-9.081,0-5.639,3-8.758m10.4,6.156a20.472,20.472,0,0,0-.669-5.989,2.42,2.42,0,0,0-2.487-1.706,2.621,2.621,0,0,0-2.62,1.967,19.4,19.4,0,0,0-.8,5.729Z" transform="translate(136.546 7.97)"/>
    <path id="Path_8" data-name="Path 8" d="M182.4,32a3.6,3.6,0,0,0,1.967-.727,2.952,2.952,0,0,0,.633-2.23V14.672a3.2,3.2,0,0,0-.511-2.081,3.372,3.372,0,0,0-2.089-.773V10.646h9.226v3.492A10.055,10.055,0,0,1,194.6,11.2a7.24,7.24,0,0,1,4-1.163,6.874,6.874,0,0,1,4.891,1.629q1.733,1.631,1.735,5.726v11.86a2.8,2.8,0,0,0,.563,2.112,3.671,3.671,0,0,0,1.882.641v1.173h-11.5V32a3.782,3.782,0,0,0,1.793-.716,3,3,0,0,0,.477-2.058V17.365a7.119,7.119,0,0,0-.334-2.512,2.214,2.214,0,0,0-2.27-1.507,3.5,3.5,0,0,0-2.334.922,8.267,8.267,0,0,0-1.636,1.854V29.227a3,3,0,0,0,.479,2.058,3.764,3.764,0,0,0,1.792.716v1.173H182.4Z" transform="translate(144.877 7.971)"/>
    <path id="Path_9" data-name="Path 9" d="M201.087,25.784h1.349a7.78,7.78,0,0,0,2.67,4.931,6.693,6.693,0,0,0,4.007,1.439,3.866,3.866,0,0,0,2.763-.849,2.969,2.969,0,0,0,.881-2.237,3.032,3.032,0,0,0-.955-2.252,6.973,6.973,0,0,0-1.688-1.075l-3.619-1.771a11.254,11.254,0,0,1-4.1-3.059,6.23,6.23,0,0,1-1.26-3.9,6.837,6.837,0,0,1,1.99-4.911,7.361,7.361,0,0,1,5.566-2.069,11.871,11.871,0,0,1,3.309.51,11.662,11.662,0,0,0,2.185.51,1.172,1.172,0,0,0,.852-.255,1.964,1.964,0,0,0,.42-.712h1.068V17.17h-1.247a8.541,8.541,0,0,0-2.288-4,5.225,5.225,0,0,0-3.711-1.509,3.107,3.107,0,0,0-2.446.908,2.916,2.916,0,0,0-.807,1.965,2.7,2.7,0,0,0,.716,1.724,7.517,7.517,0,0,0,2.638,1.818l2.693,1.29a13.964,13.964,0,0,1,3.651,2.32,6.389,6.389,0,0,1,1.923,4.71,7.768,7.768,0,0,1-1.974,5.081,7.3,7.3,0,0,1-5.927,2.356,9.647,9.647,0,0,1-1.975-.206,20.233,20.233,0,0,1-2.453-.712l-.838-.291a5.717,5.717,0,0,0-.562-.192,1.188,1.188,0,0,0-.276-.027.926.926,0,0,0-.707.327,5,5,0,0,0-.682,1.1h-1.172Z" transform="translate(159.721 7.971)"/>
    <path id="Path_10" data-name="Path 10" d="M196.611,19.815a25.577,25.577,0,0,0,3.348-2.654,5.609,5.609,0,0,0,2.024-3.779,1.347,1.347,0,0,0-.242-.813.928.928,0,0,0-.746-.31,9.748,9.748,0,0,1-1.06.118,3.506,3.506,0,0,1-2.625-1.066,3.764,3.764,0,0,1-1.035-2.742,4.136,4.136,0,0,1,1.107-2.993,3.988,3.988,0,0,1,3.011-1.15,4.573,4.573,0,0,1,3.5,1.518,5.882,5.882,0,0,1,1.4,4.152,9.957,9.957,0,0,1-2.918,6.94,21.567,21.567,0,0,1-5.189,3.852Z" transform="translate(155.898 3.517)"/>
    <path id="Path_11" data-name="Path 11" d="M54.88,13.322A9.672,9.672,0,0,1,62.114,10.2a8.733,8.733,0,0,1,4.543,1.267,8.5,8.5,0,0,1,3.276,3.513,13.508,13.508,0,0,1,1.2,4.4,16.067,16.067,0,0,1,.167,1.936H58.809a17.725,17.725,0,0,0,.956,5.087q1.435,4.037,5.044,4.035a5.554,5.554,0,0,0,3.251-1.075,14.865,14.865,0,0,0,2.318-2.173l1.123.693a13.067,13.067,0,0,1-5.259,5.191,10.146,10.146,0,0,1-4.446.933,9.958,9.958,0,0,1-6.764-2.844q-3.154-2.845-3.154-9.081,0-5.641,3-8.76m10.4,6.158a20.5,20.5,0,0,0-.669-5.991,2.419,2.419,0,0,0-2.487-1.7,2.616,2.616,0,0,0-2.618,1.965,19.291,19.291,0,0,0-.8,5.731Z" transform="translate(41.206 8.106)"/>
    <path id="Path_12" data-name="Path 12" d="M62.655,31.9a5.161,5.161,0,0,0,2.09-.8,16.314,16.314,0,0,0,2.665-2.758q.746-.91,1.97-2.541T71.4,23.166l-6.293-9.587a5.256,5.256,0,0,0-1.218-1.455,3.4,3.4,0,0,0-1.335-.407V10.545H74.777v1.172a16.329,16.329,0,0,0-1.983.345c-.192.072-.285.258-.285.56a7.179,7.179,0,0,0,1.229,2.487c.822,1.3,1.541,2.365,2.168,3.212q2.5-3.165,3.1-4.025a2.725,2.725,0,0,0,.594-1.432.844.844,0,0,0-.583-.908,7.7,7.7,0,0,0-1.918-.239V10.545h8.187v1.172a7.979,7.979,0,0,0-1.491.406,4.888,4.888,0,0,0-1.873,1.457l-5.049,6.2,7.315,11.094a1.966,1.966,0,0,0,.585.608,5.175,5.175,0,0,0,.87.416v1.173H73.868V31.9a6.578,6.578,0,0,0,1.626-.237.783.783,0,0,0,.6-.813,3.288,3.288,0,0,0-.5-1.312q-.288-.549-.931-1.55-.353-.554-1.016-1.531t-1.2-1.818q-1.585,1.992-2.365,3.074a7.9,7.9,0,0,0-1.6,2.894.966.966,0,0,0,.608,1.007,5.993,5.993,0,0,0,1.827.285v1.173H62.655Z" transform="translate(49.685 8.376)"/>
    <path id="Path_13" data-name="Path 13" d="M78.6,23.487a43.743,43.743,0,0,1,10.009-3.9V16.03a4.712,4.712,0,0,0-.924-3.208,4.254,4.254,0,0,0-3.278-1.037,4.314,4.314,0,0,0-2.169.488,1.42,1.42,0,0,0-.849,1.227,1.071,1.071,0,0,0,.1.477,1.961,1.961,0,0,0,.287.406l.289.334a3.64,3.64,0,0,1,.536.894,2.7,2.7,0,0,1,.2,1.039,2.6,2.6,0,0,1-.924,2.135,3.3,3.3,0,0,1-2.146.75,3.62,3.62,0,0,1-2.408-.833,2.951,2.951,0,0,1-1-2.4,5.021,5.021,0,0,1,2.654-4.45A12.163,12.163,0,0,1,85.508,10.2a13.833,13.833,0,0,1,6.958,1.6q2.772,1.626,2.772,5.973V29.629a1.463,1.463,0,0,0,.274.9.771.771,0,0,0,.614.37,1.217,1.217,0,0,0,.515-.106,3.336,3.336,0,0,0,.709-.587l.743,1.028a7.955,7.955,0,0,1-3.18,2.347,6.288,6.288,0,0,1-2.318.431,3.8,3.8,0,0,1-3.178-1.272,4.85,4.85,0,0,1-.836-2.135,11.512,11.512,0,0,1-4.6,2.88,9.52,9.52,0,0,1-3.066.528,6.236,6.236,0,0,1-3.759-1.281,4.621,4.621,0,0,1-1.748-3.99A5.912,5.912,0,0,1,78.6,23.487m8.541,6.33A9.468,9.468,0,0,0,88.51,28.47V21.264a10.249,10.249,0,0,0-3.449,1.518,5.286,5.286,0,0,0-2.514,4.482,3.6,3.6,0,0,0,.73,2.446,2.146,2.146,0,0,0,1.64.831,3.791,3.791,0,0,0,2.227-.723" transform="translate(59.899 8.106)"/>
    <path id="Path_14" data-name="Path 14" d="M87.9,25.954h1.351a7.774,7.774,0,0,0,2.67,4.932,6.684,6.684,0,0,0,4,1.439,3.862,3.862,0,0,0,2.765-.85,2.967,2.967,0,0,0,.883-2.237,3.045,3.045,0,0,0-.955-2.25,6.95,6.95,0,0,0-1.692-1.077l-3.619-1.769a11.254,11.254,0,0,1-4.095-3.059,6.23,6.23,0,0,1-1.261-3.9,6.837,6.837,0,0,1,1.99-4.911A7.361,7.361,0,0,1,95.509,10.2a11.9,11.9,0,0,1,3.312.51,11.467,11.467,0,0,0,2.182.51,1.172,1.172,0,0,0,.852-.253,1.973,1.973,0,0,0,.42-.714h1.071V17.34H102.1a8.573,8.573,0,0,0-2.29-4A5.226,5.226,0,0,0,96.1,11.835a3.094,3.094,0,0,0-2.444.91,2.908,2.908,0,0,0-.807,1.963,2.708,2.708,0,0,0,.714,1.724A7.486,7.486,0,0,0,96.2,18.25l2.691,1.292a14,14,0,0,1,3.653,2.32,6.389,6.389,0,0,1,1.923,4.71,7.777,7.777,0,0,1-1.976,5.081q-1.976,2.355-5.927,2.354a9.644,9.644,0,0,1-1.974-.206,20.235,20.235,0,0,1-2.453-.712L91.3,32.8a5.714,5.714,0,0,0-.562-.192,1.189,1.189,0,0,0-.276-.025.922.922,0,0,0-.705.327,4.923,4.923,0,0,0-.684,1.1H87.9Z" transform="translate(69.819 8.106)"/>
    <path id="Path_15" data-name="Path 15" d="M37.921,4.665H67.338l.047,9.888h-1.4q-.692-5.307-3.964-7.179a12.169,12.169,0,0,0-5.491-1.129V32.03q0,2.7.947,3.587t3.946.885v1.243H43.94V36.5q2.888,0,3.84-.9t.949-3.576V6.246a12.481,12.481,0,0,0-5.491,1.129q-3.51,1.919-3.964,7.179h-1.4Z" transform="translate(30.083 3.706)"/>
    <path id="Path_24" data-name="Path 24" d="M315.208,12.874a4.959,4.959,0,1,1,4.956-4.959,4.974,4.974,0,0,1-4.956,4.959m0-9.3a4.343,4.343,0,1,0,4.326,4.342,4.35,4.35,0,0,0-4.326-4.342m-1.893,2.781c0-.6,0-1.089-.632-1.089V5.006h2.894c1.2,0,2.135.488,2.135,1.52a1.515,1.515,0,0,1-1.26,1.462l.876,1.59c.17.3.429.831.816.831v.258h-1.692l-1.434-2.578h-.314V9.305c0,.745,0,1.1.831,1.1v.258h-2.952v-.258c.73,0,.73-.359.73-1.1Zm1.391,1.376a1.6,1.6,0,0,0,.388.041A1.167,1.167,0,0,0,316.211,6.5a1.047,1.047,0,0,0-1.177-1.175h-.328Z" transform="translate(69.489 2.349)"/>
    <path id="Path_25" data-name="Path 25" d="M15.908,25.393c3.824,3.312,7.461,5.081,13.03,5.169v0c5.715-.034,9.407-1.807,13.29-5.171L52.264,15.036a3.4,3.4,0,0,1,4.787,4.83L43.705,32.71C40,35.746,34.752,37.276,28.938,37.276S17.875,35.746,14.168,32.71L1,19.867a3.4,3.4,0,0,1,4.785-4.83Z" transform="translate(0 11.17)" fill="#da2530"/>
    <path id="Path_26" data-name="Path 26" d="M19.169,19.387a8.245,8.245,0,0,0,12.142-.029l8.806-8.86a3.4,3.4,0,1,1,4.864,4.755l-7.764,7.879c-3.922,3.748-6.19,6.237-12.007,6.153-5.593-.083-7.846-2.428-11.7-6.11L5.66,15.253A3.4,3.4,0,1,1,10.522,10.5Z" transform="translate(3.703 7.504)" fill="#da2530"/>
    <path id="Path_27" data-name="Path 27" d="M10.285,10.6a3.4,3.4,0,0,1,4.753-4.863l5.388,5.634a1.571,1.571,0,0,0,2.254.031l5.591-5.665A3.4,3.4,0,0,1,33.024,10.6l-9.6,9.485a2.519,2.519,0,0,1-3.635-.011Z" transform="translate(7.369 3.801)" fill="#da2530"/>
    <path id="Path_28" data-name="Path 28" d="M18.1,0a4.468,4.468,0,1,1-4.468,4.468A4.468,4.468,0,0,1,18.1,0" transform="translate(10.832 0.001)" fill="#da2530"/>
  </g>
</svg>